<?xml version="1.0" encoding="UTF-8"?>
<svg overflow="hidden" baseProfile="tiny" version="1.2" viewBox="0 0 263.7 174.6" xml:space="preserve" xmlns="http://www.w3.org/2000/svg">
<title>TOMS-FLAG</title>
		<polygon points="263.7 174.6 0 174.6 0 0 263.7 0" fill="#fff"/>
		<path d="m108.1 61.4c-9.2 0-17.8 4.9-22.3 13-2.3 4-3.5 8.6-3.4 13.2-0.1 6.9 2.6 13.5 7.6 18.3 4.9 5 11.6 7.7 18.6 7.5 14.3 0.1 25.9-11.5 25.9-25.7v-0.3c0.2-6.9-2.6-13.6-7.6-18.5-5-5-11.8-7.7-18.8-7.5zm17.2 36c-1.7 3-4.1 5.4-7.1 7.1s-6.4 2.6-9.9 2.6c-10.6 0-19.3-8.6-19.3-19.2v-0.2c0-3.5 0.8-6.9 2.6-10 1.7-3 4.1-5.4 7.1-7.1 2.9-1.7 6.2-2.6 9.6-2.7 3.4 0 6.8 0.9 9.8 2.7 3 1.7 5.4 4.1 7.2 7.1 1.7 3 2.6 6.4 2.5 9.9 0 3.3-0.8 6.7-2.5 9.8zm-84.9-30h15.6v45.6h7.3v-45.6h15.6v-6.2h-38.5v6.2zm180.8 23.5c-1.4-2.3-3.8-4.2-7.3-5.9l-4.1-1.9c-1.8-0.8-3.5-1.8-5.1-2.9-0.8-0.7-1.5-1.5-1.9-2.5-0.5-1-0.7-2.2-0.7-3.3-0.1-1.8 0.6-3.6 1.9-4.8 1.4-1.3 3.3-2 5.2-1.9 1.7 0 3.4 0.3 5.1 0.9 1.4 0.4 2.8 1 4.1 1.8l0.3 0.2 2.2-6.4-0.1-0.1c-2.3-1.9-6.1-2.7-11.6-2.7-3.8-0.1-7.5 1.2-10.3 3.7-2.6 2.4-4.1 5.9-4 9.4-0.1 2.8 0.6 5.6 2.1 8 1.4 2.2 3.8 4.1 7.2 5.7l4 1.9c3.6 1.7 5.8 3.3 6.6 4.6 0.9 1.4 1.3 2.9 1.3 4.5 0.1 2-0.8 4-2.3 5.3-1.7 1.5-3.9 2.2-6.2 2.1-1.7 0-3.4-0.3-5-0.9-1.7-0.5-3.2-1.3-4.6-2.3l-0.3-0.2-2.7 6.8 0.2 0.1c3.4 2.2 7.4 3.3 11.4 3.2 5.1 0 9.1-1.3 12.2-4 2.9-2.4 4.6-5.9 4.6-9.7 0-3-0.7-6-2.2-8.7zm-46.3-29.4l-11 36.5-11.9-36.5h-3.6l-9.6 51.5h7.2l5.7-31.9 11.2 32h2.1l10.8-32 5.9 31.9h7.2l-10.4-51.5h-3.6z" fill="#040000"/>
		<path d="M0,0v56h263.7V0H0z M0,174.6h263.7v-56H0V174.6z" fill="#87C2D4"/>
</svg>
